<svg width="22" height="22" viewBox="0 0 22 22" fill="none" xmlns="http://www.w3.org/2000/svg">
<path d="M20.1563 18.7946L19.203 6.70083C19.148 5.94833 18.5063 5.375 17.7363 5.375H16.0496V4.92708C16.0496 2.20375 13.7763 0 11.008 0C8.22128 0 5.96628 2.20375 5.96628 4.92708V5.375H4.15128C3.38127 5.375 2.73961 5.96625 2.68461 6.71875L1.84127 18.8304C1.7496 20.2817 2.92294 21.5 4.40794 21.5H17.5896C19.093 21.5 20.2663 20.2458 20.1563 18.7946ZM7.79962 4.92708C7.79962 3.20708 9.22962 1.79167 11.008 1.79167C12.7863 1.79167 14.2163 3.20708 14.2163 4.92708V5.375H7.79962V4.92708ZM6.42461 11.6458C6.42461 11.1442 6.82795 10.75 7.34128 10.75C7.85462 10.75 8.25795 11.1442 8.25795 11.6458C8.25795 12.1475 7.85462 12.5417 7.34128 12.5417C6.82795 12.5417 6.42461 12.1475 6.42461 11.6458ZM15.2063 15.5517C14.8763 17.0208 13.1163 18.0958 11.008 18.0958C8.89962 18.0958 7.12128 17.0208 6.79128 15.5517C6.69961 15.1575 6.95628 14.7812 7.35962 14.7096C7.76295 14.62 8.14795 14.8708 8.22128 15.265C8.38628 15.9458 9.46795 16.6625 11.008 16.6625C12.548 16.6625 13.6296 15.9458 13.7763 15.265C13.868 14.8708 14.253 14.6379 14.638 14.7096C15.0413 14.7812 15.2796 15.1754 15.2063 15.5517ZM14.6746 12.5417C14.1613 12.5417 13.758 12.1475 13.758 11.6458C13.758 11.1442 14.1613 10.75 14.6746 10.75C15.188 10.75 15.5913 11.1442 15.5913 11.6458C15.5913 12.1475 15.1696 12.5417 14.6746 12.5417Z" fill="#8775FE"/>
</svg>
